<?xml version="1.0" encoding="utf-8"?>
<!-- Generator: Adobe Illustrator 16.0.0, SVG Export Plug-In . SVG Version: 6.00 Build 0)  -->
<!DOCTYPE svg PUBLIC "-//W3C//DTD SVG 1.1//EN" "http://www.w3.org/Graphics/SVG/1.1/DTD/svg11.dtd">
<svg version="1.1" id="Calque_1" xmlns="http://www.w3.org/2000/svg" xmlns:xlink="http://www.w3.org/1999/xlink" x="0px" y="0px"
	 width="283.333px" height="170.667px" viewBox="14 -98.167 283.333 170.667" enable-background="new 14 -98.167 283.333 170.667"
	 xml:space="preserve">
<g>
	<g>
		<path fill="#571419" d="M57.755,19.762c-0.099-0.149-0.356-0.304-0.47-0.451c-0.195-0.182-0.383-0.492-0.438-0.806
			c-1.901-3.784-5.101-4.444-8.299-1.9c-1.513,1.275-2.672,2.999-3.031,5.04c-0.579,2.868,0.289,5.229,2.487,6.987
			c1.576,1.27,3.455,1.897,5.591,2.545c-0.213-0.521-0.261-0.822-0.498-1.277c-1.088-3.483,0.498-6.337,3.853-6.985
			c2.422-0.465,4.53,0.177,6.419,1.914c0.646,0.483,1.236,1.104,1.843,1.729c0.262-0.784,0.35-1.505,0.715-2.053
			c1.389-3.002,4.976-4.438,7.904-3.321c1.611,0.633,2.665,1.897,3.015,3.642c0.439,1.574-0.046,2.885-1.183,3.988
			c-1.075,1.077-2.323,1.383-3.696,0.895c-1.047-0.333-1.625-1.369-1.334-2.356c0.051-0.3,0.243-0.667,0.512-0.753
			c0.232-0.03,0.55,0.137,0.771,0.286c0.313,0.304,0.649,0.75,1.1,0.931c0.259,0.021,0.598-0.284,0.892-0.454
			c0.99-0.727,1.062-1.76,0.484-2.845c-0.564-1.126-1.667-1.59-2.95-1.59c-3.046,0.006-4.933,3.334-3.552,6.336
			c1.14,2.547,3.262,3.634,5.683,4.105c4.122,0.819,7.798-0.323,11.072-3.161c1.844-1.561,3.482-3.032,4.815-5.202
			c-0.335,0.138-0.727,0.311-1.084,0.308c-1.317,0.167-2.495,0.464-3.752,0.334c-1.964-0.181-3.505-1.44-4.136-3.51
			c-0.695-2.062-0.416-3.817,1.411-5.253c0.035-0.122,0.05-0.163,0.117-0.582c-1.454-0.163-2.88-0.316-4.395-0.465
			c-3.517-0.338-7.116-0.675-10.532-1.891c-5.609-1.923-9.729-5.562-12.214-11.16c-2.335-5.27-3.638-10.874-4.238-16.563
			c-0.527-4.271-0.797-8.467-1.14-12.727c-0.274-3.255-0.736-6.58-2.069-9.576c-0.604-1.43-1.356-3.002-2.429-4.182
			c-2.701-3.178-7.001-2.146-8.368,1.88c-0.857,2.541,0.81,5.312,3.193,5.147c1.292-0.077,2.251-1.195,2.422-2.6
			c0.047-0.717-0.215-1.202-0.806-1.529c-0.682-0.369-1.085-0.153-1.522,0.404c-0.064,0.157-0.233,0.314-0.308,0.253
			c-0.311,0.139-0.81,0.221-1.055,0.067c-0.211-0.237-0.308-0.855-0.189-1.177c0.383-1.195,1.485-1.977,2.695-1.749
			c1.997,0.162,3.345,2.054,3.132,4.118c-0.312,3.489-4.073,5.388-7.071,3.629c-2.101-1.333-3.236-4.1-2.609-6.624
			c1.362-4.997,4.291-8.728,8.869-10.844c4.365-1.991,8.588-1.241,12.115,2.142c1.889,1.734,3.183,3.957,4.537,6.234
			c0.313,0.549,0.594,1.176,1.16,2.051c0.238-1.012,0.322-1.591,0.502-2.211c0.482-2.292,0.994-2.754,3.178-2.769
			c2.408,0,4.901,0.007,7.321,0.009c0.269-0.009,0.361,0.002,0.897-0.022c-0.602-0.782-1.113-1.398-1.526-2.04
			c-0.426-0.554-0.792-1.107-1.189-1.656c-0.309-0.547-0.375-1.192,0.154-1.653c0.347-0.333,0.927-0.65,1.401-0.567
			c0.73,0.243,1.367,0.708,1.934,1.188c0.576,0.623,1.05,1.346,1.474,1.98c0.913-0.711,1.729-1.427,2.605-2.057
			c0.675-0.4,1.312-0.493,2.034-0.72c0.808-0.203,1.47,0.08,1.908,0.795c0.367,0.859,0.113,1.591-0.438,2.216
			c-0.39,0.551-1.052,0.951-1.668,1.353c-0.558,0.453-1.109,0.776-1.631,1.407c1.056,0.097,2.099,0.086,3.172,0.326
			c1.395,0.319,2.757,0.637,4.105,1.258c1.86,0.873,2.366,2.152,2.123,4.261c-0.265,2.146-0.529,4.286-0.812,6.507
			c2.172-0.014,4.083-1.264,4.65-3.242c1.024-3.006,1.855-6.097,2.72-9.108c0.427-1.414,0.224-2.448-0.877-3.553
			c-1.06-0.955-1.669-2.301-2.408-3.655c-0.542-1.168-1.084-1.82-2.429-2.045c-1.082-0.158-2.16-0.787-3.171-1.493
			c-2.498-1.972-5.243-3.606-8.09-5.153c-0.626-0.466-1.386-0.871-1.98-1.418c-0.794,0.473-1.562,0.949-2.344,1.42
			c-1.196,0.715-2.471,0.713-3.608-0.228c-1.267-0.889-1.501-2.234-1.222-3.649c0.193-0.79,0.508-1.652,1.004-2.283
			c0.855-1.351,2.147-1.513,3.479-0.766c1.169,0.756,2.261,1.722,2.709,3.213c3.523-0.169,6.815-1.102,10.077-2.282
			c2.789-1.032,5.342-2.068,8-3.186c3.563-1.493,7.327-2.112,11.238-1.409c3.324,0.624,6.327,2.049,8.44,5.213
			c0.733,0.962,1.327,2.219,1.6,3.4c0.518,1.835,1.139,3.568,2.363,5.143c0.324,0.46,0.546,1.035,0.596,1.593
			c-0.002,0.468-0.254,1.092-0.595,1.339c-0.931,0.717-1.086,1.584-1.224,2.688c-0.021,0.551-0.071,1.099-0.246,1.978
			c0.518-0.325,0.808-0.553,1.044-0.788c2.633-2.449,4.06-5.609,5.118-9.024c0.78-2.685,1.588-5.366,2.376-8.139
			c0.051-0.411,0.004-0.886-0.057-1.279c-0.221-1.094-0.677-2.196-0.69-3.31c-0.115-2.14,0.468-2.848,2.58-3.087
			c0.121-0.492,0.312-1.033,0.529-1.644c0.543-1.438,1.686-2.158,3.242-1.998c1.349,0.145,2.427,1.195,2.682,2.625
			c0.066,0.776,0.072,1.509,0.056,2.246c0.009,0.275-0.195,0.602-0.192,0.983c-0.53,2.54-1.348,4.936-1.204,7.607
			c0.004,3.322-1.483,6.407-2.374,9.539c-0.254,0.574-0.321,1.201-0.563,1.865c1.463-0.351,2.989-0.665,4.342-0.985
			c0.212-0.071,0.339-0.306,0.539-0.545c2.429-2.678,5.41-3.548,8.897-3.477c3.509,0.079,6.737,1.271,9.974,2.768
			c5.63,2.604,10.787,5.926,16.146,9.252c8.395,5.377,16.747,11.076,25.643,15.733c5.947,3.237,12.175,6.024,18.342,9.024
			c5.116,2.457,10.246,4.751,15.366,7.127c0.263,0.156,0.523,0.229,0.808,0.307c0.247-0.542,0.496-1.025,0.547-1.428
			c0.796-1.661,2.403-2.215,4.003-1.417c0.517,0.309,0.839,0.562,1.353,0.951c0.292,0.386,0.812,0.639,1.076,1.1
			c1.683,2.308,4.054,3.715,6.747,4.5c3.501,1.056,6.986,2.457,10.482,3.582c1.381,0.462,2.955,0.786,4.339,0.84
			c2.705,0.202,4.22-0.992,4.603-3.79c0.695-3.381,0.51-6.796-0.541-10.102c-1.078-3.562-2.435-6.976-3.793-10.368
			c-0.537-1.198-1.341-2.443-2.125-3.489c-1.076-1.57-2.433-2.441-4.355-1.886c-1.02,0.238-1.88,0.229-2.729,0.083
			c-1.6-0.25-2.908-2.382-1.061-4.197c0.575-0.645,1.331-1.43,1.914-2.131c0.585-0.646,1.343-1.431,2.176-2.39
			c-0.578-0.076-1.1-0.303-1.613-0.224c-2.124,0.158-4.058,0.628-5.704,1.892c-1.841,1.265-3.433,2.675-4.836,4.039
			c-3.044,2.833-6.489,4.973-10.519,5.997c-2.437,0.574-4.884,0.874-7.512,0.397c-3.766-0.704-6.257-3.793-6.453-7.504
			c-0.006-2.047,0.817-3.568,2.63-4.587c1.601-1.025,3.253-0.877,4.65,0.216c1.306,0.81,2.085,1.994,2.121,3.497
			c0.249,2.45-2.154,4.666-4.322,3.96c-0.261-0.073-0.553-0.483-0.562-0.791c-0.017-0.25,0.214-0.648,0.53-0.793
			c0.308-0.306,0.816-0.247,1.141-0.464c1.064-0.4,1.548-1.287,1.063-2.392c-0.309-1.024-1.358-1.73-2.452-1.726
			c-1.068,0.066-2.129,0.854-2.441,2.042c-0.766,1.975,0.281,4.367,1.965,5.709c1.273,0.854,2.397,1.104,3.752,1.174
			c5.398,0.154,10.207-1.816,14.771-5.765c-0.785,0.146-1.08,0.23-1.563,0.233c-1.942,0.466-4.072,0.403-6.211-0.321
			c-2.16-0.787-3.499-2.373-4.069-4.743c-0.529-1.757,0.274-3.552,1.869-4.745c1.369-1.035,3.241-1.184,4.592-0.148
			c1.368,1.094,1.621,2.991,0.528,4.267c-0.254,0.233-0.75,0.451-0.791,0.309c-0.257-0.155-0.529-0.476-0.56-0.791
			c-0.205-0.223,0.009-0.551,0.022-0.795c0.012-1.104-0.259-1.429-1.315-1.581c-1.615-0.222-2.976,1.59-2.468,3.252
			c0.513,1.5,1.323,2.608,2.732,3.157c3.215,1.023,6.181,0.398,8.897-1.345c0.808-0.554,1.596-1.201,2.401-1.75
			c3.474-2.75,4.301-3.159,8.537-4.027c-0.171-0.784-0.173-1.503-0.418-2.291c-0.539-2.447-0.845-4.824-1.633-7.118
			c-0.769-2.375-2.709-3.104-4.61-3.783c-0.263-0.019-0.568,0.066-0.81,0.219c-1.093,0.845-1.043,2.535,0.559,3.337
			c-0.012-0.64-0.032-1.116-0.006-1.563c0.02-0.345,0.265-0.833,0.539-0.976c0.523-0.243,0.813,0.188,1.08,0.629
			c0.561,1.259,0.521,2.771-0.513,3.482c-0.848,0.792-2.215,0.555-3.251-0.396c-0.566-0.709-1.072-1.516-1.09-2.54
			c0.008-0.551,0.02-1.184,0.012-1.958c-0.475,0.079-0.825,0.075-1.136,0.21c-2.106,0.504-4.243,1.046-6.158,1.52
			c-2.972,0.707-5.947,1.022-9.135,0.394c-8.123-1.647-9.765-9.955-8.102-15.171c0.521-1.521,1.327-2.927,2.454-3.903
			c1.574-1.33,3.215-1.574,5.049-0.709c1.636,0.729,2.229,2.299,2.459,4.169c0.021,1.301-0.024,2.562-0.817,3.672
			c-1.323,1.993-3.762,2.182-5.11,0.395c-0.297-0.383-0.561-0.79-0.269-1.265c0.296-0.473,0.802-0.47,1.104-0.176
			c0.739,0.411,1.308,0.813,1.897,0.334c0.801-0.553,1.041-1.345,1.063-2.141c0-0.388,0.037-0.721-0.008-1.111
			c-0.288-2.208-2.182-3.008-4.021-1.744c-1.376,1.122-2.172,2.783-2.234,4.597c-0.477,2.136-0.208,4.199,0.77,6.253
			c0.891,2.141,2.486,3.542,4.442,4.273c2.678,0.898,5.363,0.952,8.057,0.475c1.882-0.313,3.752-0.794,5.632-1.475
			c-0.806-0.27-1.598-0.433-2.405-0.738c-3.274-1.208-5.369-4.823-4.546-8.474c0.498-2.129,1.841-3.558,3.746-3.862
			c2.129-0.332,3.782,0.432,5.085,2.192c0.841,1.392,0.549,3.171-0.786,4.049c-1.337,0.881-2.974,0.707-3.793-0.623
			c-0.274-0.328-0.512-0.81-0.51-1.278c0.013-0.634,0.78-0.948,1.312-0.468c0.041,0.147,0.267,0.455,0.331,0.673
			c0.518,0.583,1.268,0.514,1.628,0.107c0.539-0.543,0.481-1.107-0.023-1.58c-0.613-0.935-1.669-1.342-2.961-1.163
			c-1.105,0.213-1.681,0.985-2.162,2.191c-0.649,2.469,0.525,5.269,2.933,6.344c1.351,0.616,2.693,0.842,4.052,0.777
			c1.262,0,2.429-0.08,3.572,0.002c6.115,0.091,9.354,3.245,10.952,7.921c0.032,0.31,0.251,0.541,0.289,0.935
			c0.566-0.618,1.105-1.109,1.68-1.509c1.296-0.94,2.641-1.178,4.019-0.638c1.231,0.412,1.866,1.209,1.883,2.624
			c0.151,1.499-0.537,2.62-1.573,3.156c-0.918,0.48-1.996,0.24-2.752-0.857c-0.267-0.405-0.526-0.947-0.018-1.367
			c0.457-0.379,0.815-0.296,1.113,0.089c0.255,0.152,0.484,0.33,0.529,0.479c0.796-0.392,0.806-1.024,0.529-1.655
			c-0.28-0.628-0.831-0.725-1.37-0.575c-1.088,0.346-2.131,1.184-2.36,2.479c-0.415,2.675,0.237,4.968,1.837,7.044
			c0.247,0.362,0.792,0.547,1.09,0.461c2.146-0.24,4.204,0.149,6.202,0.874c1.592,0.549,3.197,0.937,4.786,1.265
			c0.563,0.151,1.128,0,1.663-0.072c0.539-0.019,1.086-0.256,1.621-0.329c1.335-0.076,2.158,0.869,2.172,2.277
			c0.007,2.47-0.922,5-3.521,6.04c-0.817,0.384-1.841,0.706-2.68,1.172c-1.1,0.557-1.349,1.04-0.566,2.225
			c0.551,0.956,1.325,1.806,2.131,2.524c3.279,3.335,5.957,7.363,8.354,11.623c2.469,4.826,3.798,10.032,3.629,15.589
			c0.093,0.333,0.138,0.772,0.169,1.251c0.808-0.197,1.463-0.309,2.176-0.454c2.166-0.483,4.536-0.962,6.703-1.452
			c0.299-0.139,0.807-0.236,1.103-0.275c1.36-0.016,2.138,0.78,1.886,2.204c-0.164,1.099-0.523,2.044-0.802,3.021
			c0.021,0.137,0.169,0.282,0.253,0.289c1.533,0.494,1.985,1.413,1.36,3.333c-0.52,1.436-1.086,2.859-1.886,4.237
			c-1.905,3.191-4.044,6.336-6.027,9.381c-1.233,1.884-2.87,2.985-5.001,3.309c-1.37,0.272-2.747,0.588-4.288,0.656
			c-0.867,0.117-1.905,0.073-2.708-0.666c-1.159-1.255-1.125-2.855,0.262-3.802c1.058-0.755,2.156-1.26,3.257-1.573
			c2.36-0.482,3.466-1.957,4.439-3.961c1.185-2.743,0.912-3.946-1.521-5.857c-0.545,0.622-1.088,1.173-1.637,1.904
			c-1.607,1.872-3.229,3.483-5.126,4.899c-4.011,2.717-8.323,3.632-12.92,3.008c-3.489-0.464-6.739-1.709-9.721-3.341
			c-0.832-0.475-1.86-1.026-2.682-1.5c-2.182-1.223-4.595-1.456-7.217-0.652c-2.735,0.927-5.475,1.39-8.43,1.383
			c-1.097,0.006-2.38,0.146-3.478,0.18c-2.104,0.299-3.773,1.229-5.156,2.844c-1.322,1.574-2.642,3.011-3.773,4.58
			c-4.021,5.065-9.099,8.706-14.764,11.22c-0.601,0.295-1.392,0.53-2.201,0.767c-0.78,0.045-1.572-0.116-1.874-0.754
			c-0.52-0.642-0.487-1.438,0.021-2.069c0.498-0.637,0.806-1.411,1.345-1.898c1.368-1.425,2.95-2.843,4.546-4.089
			c2.693-2.227,5.161-4.62,7.549-7.449c0.256-0.179,0.294-0.473,0.312-0.799c-0.3,0.166-0.821,0.464-1.125,0.632
			c-3.479,1.921-6.98,3.807-10.711,5.244c-1.885,0.78-3.513,2.025-5.192,2.976c-1.292,0.504-2.407,0.943-3.501,1.412
			c-0.784,0.18-1.37,0.139-1.878-0.622c-0.514-0.777-0.253-1.564,0.286-2.051c0.773-0.901,1.578-1.753,2.395-2.522
			c4.321-3.489,8.642-6.983,13.011-10.295c2.954-2.231,6.165-4.25,9.382-6.294c1.888-1.148,3.836-1.785,5.953-2.38
			c1.576-0.343,2.937-0.829,4.305-1.449c1.09-0.475,1.633-1.436,1.872-2.698c0.035-0.992,0.041-1.899,0.269-2.994
			c-0.529-0.146-0.839-0.211-1.341-0.315c-5.891-1.124-11.604-2.219-17.27-3.546c-8.858-1.915-17.254-4.749-25.537-8.47
			c-7.026-3.171-13.509-7.276-19.707-12.025c-4.295-3.254-8.415-6.567-12.628-9.979c-4.363-3.626-9.213-6.091-14.355-8.14
			c-0.464-0.172-0.79-0.163-1.134-0.303c-2.078,1.799-4.292,2.749-6.667,3.637c-2.365,0.861-4.587,1.811-6.951,2.674
			c-3.299,1.123-4.351,4.347-4.161,7.594c0.073,3.964,0.276,7.988-0.478,11.95c-0.005,0.081,0.013,0.167,0.052,0.475
			c1.022,0.235,2.095,0.557,3.176,0.715c1.853,0.321,3.036,1.349,3.764,3.25c1.084,3.148,2.109,6.234,3.197,9.326
			c0.107,0.48,0.317,0.937,0.847,1.417c0.01-1.479,0.026-3.011,0.014-4.508c-0.016-4.82,0.253-9.562,0.886-14.382
			c0.519-3.257,1.063-6.428,2.401-9.576c0.954-2.151,2.171-3.969,3.974-5.622c1.359-1.343,2.989-1.892,4.882-1.898
			c1.067-0.01,1.871,0.321,2.681,1.012c3.251,2.472,3.246,8.088,0.003,10.6c-0.813,0.637-1.688,0.96-2.892,0.801
			c-1.167-0.226-2.164-1.258-2.215-2.673c-0.022-1.278,0.532-2.068,1.859-2.393c0.554,0.482,0.282,0.961,0.063,1.585
			c-0.119,0.482-0.372,1.187,0.158,1.583c0.588,0.483,1.187,0.305,1.752-0.15c2.008-1.194,2.409-4.51,0.944-6.332
			c-0.763-0.938-1.771-1.337-2.89-1.026c-2.102,0.547-3.543,1.74-4.599,3.718c-0.479,0.94-0.543,1.898-0.255,2.836
			c0.525,1.361,1.072,2.786,1.878,3.975c1.358,2.118,2.952,3.939,4.507,5.842c1.9,2.375,3.554,4.98,4.858,7.837
			c1.469,3.483,2.157,7.25,1.894,11.008c-0.215,3.141-0.705,6.291-1.894,9c-2.354,4.904-5.869,8.364-10.723,10.133
			c-3.436,1.398-6.997,2.033-10.5,2.676c-0.478,0.056-0.833,0.159-1.369,0.18c1.953,2.458,1.898,5.031,0.307,7.536
			c-1.645,2.759-4.077,3.825-7.312,3.162c0.475,0.355,0.835,0.667,1.369,1.009c2.688,1.733,5.586,3.047,8.401,4.203
			c1.898,0.687,3.998,1.119,6.092,0.838c3.273-0.329,5.726-3.004,6.446-6.477c0.345-2.489-1.258-5.389-3.373-6.34
			c-1.605-0.775-3.565,0.286-4.099,1.939c-0.286,1.236,0.329,2.501,1.617,2.684c0.471,0.129,0.8-0.01,1.144,0.128
			c0.531,0.006,0.952,0.346,0.945,0.946c-0.146,0.325-0.417,0.804-0.695,0.949c-0.835,0.164-1.672,0.323-2.479,0.022
			c-2.746-0.851-3.757-4.27-2.069-6.673c1.865-2.692,5.249-3.319,7.74-1.4c2.357,1.874,3.695,4.264,3.448,7.434
			c-0.014,0.161,0.037,0.305-0.006,0.467c0,0,0.052,0.142,0.132,0.221c0.405-0.242,0.722-0.547,1.005-0.856
			c1.341-0.963,2.629-2.063,3.983-2.854c1.662-0.938,3.355-1.123,5.192-0.799c3.501,0.659,5.347,3.366,4.84,7.313
			c2.181-1.595,3.754-3.683,4.842-6.202c1.362-3.139,1.121-6.125-0.257-9.146c-1.043-2.058-2.433-3.658-4.04-5.234
			c-1.374-1.426-2.903-2.855-4.249-4.413c-1.166-1.307-1.963-3.05-2.241-5.027c-0.269-2.101,0.265-3.833,1.89-5.104
			c1.566-1.278,3.262-1.459,5.165-0.658c2.662,1.118,3.736,4.765,2.135,6.981c-0.3,0.604-0.835,0.997-1.386,1.255
			c-1.625,0.767-3.197-0.33-3.219-2.107c-0.004-0.415,0.221-0.899,0.507-1.076c0.326-0.434,0.813-0.191,1.116,0.196
			c0.244,0.29,0.282,0.601,0.539,0.782c0.854-0.791,1.068-1.28,0.774-2.277c-0.467-1.21-1.313-1.854-2.401-1.984
			c-1.866,0.119-3.162,1.72-2.889,3.758c0.218,1.454,0.956,2.858,1.881,3.874c1.335,1.424,2.683,2.812,4.024,4.205
			c1.588,1.433,2.95,3.025,4.003,4.92c1.366,2.505,2.133,5.074,1.66,7.947c-0.055,1.377-0.356,2.652-0.877,3.887
			c-2.438,5.727-6.966,9.049-12.645,10.478c-3.701,0.936-7.288,1.223-11.03,1.383c-10.74,0.646-21.518,0.508-32.355,0.372
			c-7.093-0.032-14.351-0.038-21.553-0.213c-8.7-0.216-17.534-0.654-26.263-1.763c-3.845-0.56-7.529-1.211-11.167-2.789
			c-0.783-0.329-1.651-0.768-2.412-1.273c-4.55-3.047-5.726-9.006-1.903-13.941c1.57-2.053,3.527-3.34,5.975-3.563
			c2.869-0.23,5.838,2.129,6.376,5.001c0.049,0.336-0.003,0.936-0.006,1.374C58.021,19.75,57.914,19.654,57.755,19.762z
			 M140.087-49.518c0.334,0.223,0.65,0.383,1.115,0.547c3.795,1.431,7.502,3.399,10.806,6.012c3.503,2.763,7.005,5.518,10.508,8.229
			c12.357,9.873,25.857,16.679,40.696,20.727c8.591,2.363,17.014,3.964,25.822,5.607c0.059,0.01,0.304-0.003,0.381-0.021
			c0.443-1.885,0.242-2.108-1.155-2.824c-6.188-2.779-12.15-5.773-18.345-8.472c-11.539-5.055-22.338-11.148-32.883-17.947
			c-7.205-4.499-14.223-8.946-21.244-13.366c-3.792-2.369-7.851-4.286-12.354-5.065c-1.745-0.319-3.557-0.245-5.242,0.242
			c-0.486,0.164-1.009,0.461-1.494,0.621C139.931-55.394,142.29-52.767,140.087-49.518z M99.5,25.51
			c-0.01-0.36-0.082-0.969-0.065-1.596c-0.041-1.791,0.761-3.203,2.178-4.149c0.801-0.474,1.606-0.597,2.474-0.298
			c1.275,0.438,2.01,1.569,1.816,2.832c-0.201,1.125-1.538,2.646-2.483,2.54c-0.269,0.019-0.689-0.32-0.759-0.497
			c-0.054-0.144,0.212-0.557,0.286-0.78c0.255-0.197,0.528-0.321,0.802-0.471c0.453-0.333,0.804-0.939,0.516-1.571
			c-0.306-0.629-0.99-0.525-1.561-0.326c-0.858,0.324-1.443,1.111-1.556,2.172c-0.061,0.677,0.112,1.527,0.387,2.252
			c0.614,1.736,2.009,2.122,3.506,0.967c1.691-1.432,2.954-3.34,3.095-5.75c0.197-1.219,0.192-2.355-0.418-3.451
			c-3.353-0.143-6.6-0.208-9.883-0.292c-0.291,0.017-0.819,0.423-1.08,0.735c-1.615,2.85-2.711,5.889-2.686,9.335
			c0.049,1.932,0.514,3.675,1.799,5.121c0.95,1.26,2.295,1.533,3.585,0.731c1.33-0.861,1.938-2.337,1.54-3.881
			c-0.265-0.832-0.815-1.452-1.508-1.424c-0.858,0.158-1.111,0.765-0.94,1.668c-0.104,0.044-0.104,0.044-0.116,0.182
			c-0.084,0.32-0.329,0.805-0.515,0.793c-0.346,0.005-0.731-0.305-0.895-0.616c-0.524-0.949-0.336-1.907,0.343-2.686
			C97.826,26.587,98.63,26.113,99.5,25.51z M152.524,32.593c-1.601-0.801-2.426-1.608-2.684-3.043
			c-0.22-1.211,0.201-2.03,1.013-2.666c0.124-0.151,0.604-0.184,0.805-0.123c0.074,0.134,0.138,0.574,0.271,0.791
			c0.018,0.268-0.208,0.446-0.218,0.609c-0.583,1.567,0.272,2.842,1.832,2.534c1.136-0.17,2.217-0.815,2.561-2.057
			c0.413-1.147-0.266-2.162-0.94-3.004c-0.218-0.184-0.529-0.479-0.809-0.639c-1.483-0.816-2.913-0.98-4.518-0.505
			c-1.602,0.455-2.978,1.164-4.099,2.4c-1.554,1.535-2.968,3.168-4.475,4.759c-0.606,0.784-1.194,1.568-2.159,2.539
			C143.713,33.878,148.012,33.694,152.524,32.593z M120.739,17.077c-3.314,0.154-6.546,0.315-9.984,0.467
			c0.262,0.485,0.285,0.921,0.535,1.254c1.423,2.4,3.296,4.301,5.682,5.713c0.799,0.47,1.603,0.801,2.419,0.939
			c2.949,0.551,5.908-2.478,5.591-5.534c-0.188-0.784-0.271-1.681-1.228-1.912c-0.659-0.298-1.597,0.034-2.01,0.825
			c-0.267,0.452-0.485,1.076-0.462,1.55c0.047,0.171,0.603,0.32,0.997,0.508c0.136,0.154,0.41,0.49,0.395,0.721
			c-0.049,0.221-0.308,0.536-0.517,0.688c-0.846,0.468-2.053-0.011-2.267-1.222c-0.237-0.669-0.028-1.488,0.047-2.252
			C119.984,18.19,120.459,17.722,120.739,17.077z M67.902,33.359c-1.176-1.751-2.14-3.299-3.015-4.586
			c-1.071-1.566-2.327-2.965-3.827-3.777c-1.767-0.948-3.489-1.097-5.22-0.031c-1.872,1.124-2.013,4.29-0.34,5.706
			c0.812,0.641,1.938,0.467,2.426-0.467c0.345-0.635-0.183-1.09-0.271-1.606c-0.017-0.294-0.001-0.891,0.214-1.014
			c0.139-0.103,0.629-0.047,0.876,0.107c1.027,0.739,1.28,2.048,0.615,3.308c-0.112,0.444-0.416,0.741-0.801,1.401
			C61.708,32.737,64.671,33.053,67.902,33.359z M86.229,16.616c0.274,0.768,0.547,1.092,0.749,1.574
			c0.54,1.585-0.473,3.438-2.025,3.734c-0.268,0.036-0.687-0.105-0.872-0.297c-0.07-0.267,0.015-0.633,0.268-0.908
			c0.181-0.2,0.444-0.302,0.579-0.377c0.483-0.41,0.588-0.791,0.492-1.375c-0.257-0.625-0.59-0.788-1.1-0.797
			c-1.319-0.145-2.467,1.085-2.467,2.371c-0.16,2.074,1.241,3.663,3.304,3.853c3.704,0.294,7.518-2.741,8.827-7.021
			C91.348,17.039,88.905,16.774,86.229,16.616z M110.154,21.042c-1.246,2.824-2.027,5.372-2.018,8.225
			c0.131,1.531,0.452,2.848,1.529,3.944c1.154,1.239,2.505,1.299,3.786,0.322c1.387-1.08,2.093-3.317,1.355-4.617
			c-0.489-1.076-1.296-1.381-2.223-0.76c-0.568,0.323-1.033,0.914-1.027,1.597c-0.002,0.464-0.249,0.957-0.741,0.909
			c-0.32-0.128-0.587-0.498-0.616-0.927c-0.262-0.917,0.083-1.593,0.738-2.346c0.854-0.839,1.966-1.282,3.124-1.313
			C112.701,24.351,111.518,22.771,110.154,21.042z M82.738,34.131c4.27,0.073,8.141,0.316,12.305,0.158
			c-2.54-2.816-2.888-5.972-2.677-9.443C89.745,28.497,86.706,31.479,82.738,34.131z M116.415,28.314
			c0.541,2.416-0.206,4.251-1.406,6.186c4.167-0.011,8.156-0.014,12.12-0.021C123.44,32.601,119.924,30.995,116.415,28.314z
			 M102.686,29.416c0.319,1.773-0.292,3.431-1.908,4.931c2.715,0.006,5.139,0.006,7.829-0.014c-1.893-2.07-1.899-4.452-1.896-6.662
			C105.367,28.295,104.092,28.789,102.686,29.416z"/>
	</g>
	<g>
		<path fill="#989389" d="M176.806,8.85c1.31-6.471,4.297-11.649,9.666-15.191c1.892-1.281,3.826-2.111,6.245-2.05
			c2.686,0.097,4.844,1.278,6.469,3.467c1.872,2.398,1.864,5.549-0.245,7.896c-1.433,1.909-3.585,2.705-6.195,2.397
			c-0.855-0.149-1.677-0.624-2.451-1.42c-0.545-0.645-0.593-1.567-0.304-2.379c0.041-0.29,0.504-0.467,0.597-0.473
			c0.213-0.1,0.481,0.297,0.491,0.5c0.535,1.719,0.833,2.025,2.454,2.057c1.086,0.13,2.125-0.334,2.96-0.958
			c2.678-1.893,2.94-5.228,0.521-7.441c-1.651-1.588-3.801-2.203-6.185-1.589c-1.625,0.469-3.005,1.282-4.346,2.349
			c-4.567,3.506-7.247,8.414-7.825,14.394c-1.343,10.727,1.117,20.29,8.348,28.2c5.429,6,12.395,7.931,19.989,6.487
			c3.234-0.631,6.423-1.75,9.168-3.485c2.717-1.624,5.402-3.331,8.102-5.22c5.336-3.486,10.495-6.827,16.135-9.681
			c3.791-1.886,7.806-3.47,11.871-4.219c2.462-0.371,5.097-0.523,7.553-0.214c2.407,0.199,4.585,1.127,6.463,2.688
			c3.195,2.548,3.503,6.973,1.04,10.145c-2.673,3.165-7.611,4.262-10.845,2.25c-0.202-0.131-0.463-0.24-0.698-0.359
			c-1.37-1.094-2.433-2.414-2.174-4.417c0.247-2.199,1.604-3.448,3.23-4.285c0.523-0.342,1.082-0.311,1.533,0.191
			c0.38,0.608,0.08,1.202-0.422,1.553c-0.317,0.457-0.847,0.792-1.15,1.266c-1.043,1.023-1.023,2.37,0.039,3.326
			c0.827,0.78,1.866,1.263,2.983,1.263c2.158-0.074,4.275-0.624,5.657-2.377c1.87-2.195,1.609-5.238-0.57-6.961
			c-2.119-1.542-4.299-2.041-6.71-2.207c-4.06-0.177-8.057,0.756-11.859,2.223c-4.585,1.77-8.886,4.115-12.967,6.818
			c-3.495,2.301-6.975,4.585-10.472,6.814c-2.468,1.72-5.155,3.308-7.918,4.717c-4.492,2.211-9.104,3.159-13.961,2.849
			c-6.464-0.475-12.064-3.365-16.383-8.415c-6.488-7.836-8.888-17.072-8.353-27.355c-0.002-0.444,0.21-0.773,0.229-1.099
			C176.529,10.271,176.764,9.54,176.806,8.85z"/>
		<path fill="#989389" d="M117.291-71.905c-0.317-0.161-0.607-0.152-0.801-0.332c-2.433-2.894-5.539-4.182-8.951-5.215
			c-6.475-2.057-13.012-1.912-19.674-0.488c-8.862,1.992-17.518,4.602-25.891,8.169c-3.774,1.641-7.541,3.075-11.381,4.357
			c-3.134,1.08-6.161,1.811-9.437,1.805c-2.929-0.023-5.596-1.106-7.75-3.248c-4.568-4.486-3.27-11.381-0.334-14.763
			c3.244-3.661,8.651-3.041,10.787,1.316c0.87,1.862,0.862,3.715-0.208,5.47c-0.816,1.575-2.155,2.096-3.778,2.067
			c-0.562-0.021-1.075-0.244-1.063-0.879c-0.004-0.342,0.525-0.714,0.808-0.991c0.184-0.147,0.416-0.116,0.545-0.136
			c1.872-0.615,2.691-2.607,1.679-4.42c-1.415-2.829-4.929-3.255-7.101-0.932c-2.683,2.908-3.183,7.748-0.487,11.06
			c1.939,2.375,4.54,3.331,7.451,3.17c2.054-0.158,4.179-0.481,6.252-1.115c3.719-1.183,7.288-2.454,10.86-3.944
			c9.363-3.895,19.027-7.043,28.839-8.966c3.789-0.784,7.68-1.313,11.5-0.955c5.136,0.434,10.203,1.605,14.636,4.498
			c0.996,0.584,1.803,1.303,2.437,2.019C116.948-73.732,117.486-72.95,117.291-71.905z"/>
		<path fill="#989389" d="M166.79-66.373c5.164,1.333,10.541,2.627,15.644,4.905c3.758,1.723,7.014,4.114,9.748,7.19
			c1.584,1.513,2.668,3.331,3.223,5.534c0.237,0.482,0.531,1.28-0.037,1.512c-0.796,0.391-0.818-0.556-1.055-1.036
			c-1.064-2.205-2.411-4.08-4.036-5.757c-3.515-3.403-7.576-5.707-12.144-7.212c-5.682-1.975-11.618-3.247-17.744-4.553
			c-2.69-0.633-5.22-1.305-7.792-2.641c-3.56-1.914-6.21-4.665-7.658-8.78c-2.923-8.142,3.225-15.829,10.781-15.661
			c3.007,0.063,5.163,1.748,6.277,4.801c1.067,2.546-0.038,5.78-2.436,6.979c-1.627,0.896-3.196,0.553-4.281-0.891
			c-0.32-0.456-0.786-1.009-0.249-1.545c0.477-0.434,1.004-0.329,1.482,0.059c0.816,0.723,1.447,0.89,2.273,0.168
			c1.043-0.784,1.588-2.215,1.292-3.485c-0.521-1.872-2.152-3.457-3.974-3.671c-5.124-0.633-11.369,4.547-9.44,11.732
			c1.278,4.598,4.268,7.439,8.347,9.104c1.352,0.566,2.691,1.015,4.218,1.339C161.667-67.476,164.137-66.939,166.79-66.373z"/>
		<path fill="#989389" d="M195.13,51.75c-0.307,1.099-1.092,1.24-1.631,1.397c-2.139,0.497-4.073,0.453-6.21,0.139
			c-5.653-0.771-11.285-2.346-16.689-4.072c-3.215-0.974-6.241-1.912-9.469-2.676c-4.605-0.958-9.2-0.681-13.653,1.229
			c-2.227,1.072-4.364,2.385-5.982,4.428c-1.895,2.219-2.965,4.867-2.38,7.916c0.813,4.429,5.594,7.579,9.636,6.343
			c1.688-0.495,3.184-1.582,3.768-3.51c0.28-1.12,0.023-2.1-0.81-2.854c-0.18-0.011-0.18-0.011-0.202-0.145
			c-0.531-0.442-0.919-0.783-0.576-1.551c0.276-0.519,1.082-0.65,1.874-0.066c1.895,1.146,2.648,3.661,1.622,5.959
			c-0.823,2.139-2.43,3.537-4.37,4.219c-2.366,0.909-4.545,0.791-6.908-0.174c-4.352-1.907-6.855-6.654-6.2-11.555
			c0.425-2.184,1.317-4.068,2.703-5.68c3.378-3.945,7.501-5.873,12.342-6.641c3.522-0.511,7.22-0.333,10.752,0.581
			c2.698,0.681,5.182,1.385,7.845,2.256c5.375,1.762,10.771,3.201,16.213,4.298c2.396,0.46,4.779,0.745,7.204,0.286
			C194.287,51.689,194.571,51.724,195.13,51.75z"/>
		<path fill="#989389" d="M46.024,5.993c-1.105-0.595-1.113-1.406-1.316-2.055c-1.031-3.307-1.809-6.656-2.945-9.941
			c-1.607-4.456-4.102-8.482-7.246-12.044c-1.414-1.653-2.987-3.083-5.063-3.949c-1.927-0.714-3.834-0.708-5.718,0.075
			c-3.502,1.501-5.147,5.454-3.766,9.175c0.271,0.792,0.803,1.579,1.515,2.201c0.764,0.797,1.76,0.875,2.751,0.414
			c1.047-0.394,1.309-1.265,0.81-2.295c-0.135-0.313-0.412-0.633-0.522-1.027c-0.004-0.389,0.005-0.942,0.254-1.036
			c0.238-0.236,0.81-0.219,1.047,0.013c1.387,1.487,1.887,3.478,0.511,5.128c-1.292,1.603-3.771,1.926-5.505,0.951
			c-2.465-1.508-3.324-4.025-3.33-6.875c-0.039-6.092,4.707-9.249,9.146-9.247c1.923,0,3.77,0.621,5.326,1.811
			c1.167,0.94,2.356,1.824,3.333,2.918C41.277-13.064,44.71-5.057,45.818,4.1C46.027,4.717,46.021,5.188,46.024,5.993z"/>
		<path fill="#989389" d="M285.314-22.555c0.317-0.949,0.378-1.74,0.637-2.526c1.393-4.518,1.617-9.185,1.086-13.925
			c-0.545-5.297-2.068-10.222-4.583-14.792c-0.813-1.497-1.897-2.846-2.989-4.113c-1.017-1.031-2.139-1.584-3.489-1.733
			c-1.644-0.091-3.215,0.771-4.007,2.352c-0.321,0.885-0.302,1.832,0.192,2.773c0.545,1.116,1.125,1.275,2.199,0.709
			c0.525-0.295,1.041-0.54,1.429-0.529c0.274-0.011,0.731,0.462,0.813,0.774c0.15,0.167-0.323,0.559-0.397,0.794
			c-0.216,0.158-0.484,0.165-0.518,0.324c-1.301,1.11-2.413,1.497-3.798,0.54c-1.573-1.101-2.196-2.532-2.106-4.552
			c0.492-3.668,4.064-6.207,7.855-4.866c2.066,0.717,3.455,2.064,4.588,3.727c1.821,2.221,2.913,4.678,3.976,7.35
			c2.347,6.253,3.275,12.662,2.615,19.388c-0.415,2.384-0.798,4.758-1.827,7.039C286.523-23.101,286.445-22.395,285.314-22.555z"/>
	</g>
</g>
</svg>
