<?xml version="1.0" encoding="utf-8"?>
<!-- Generator: Adobe Illustrator 16.0.0, SVG Export Plug-In . SVG Version: 6.00 Build 0)  -->
<!DOCTYPE svg PUBLIC "-//W3C//DTD SVG 1.1//EN" "http://www.w3.org/Graphics/SVG/1.1/DTD/svg11.dtd">
<svg version="1.1" id="Calque_1" xmlns="http://www.w3.org/2000/svg" xmlns:xlink="http://www.w3.org/1999/xlink" x="0px" y="0px"
	 width="595.28px" height="841.89px" viewBox="0 0 595.28 841.89" enable-background="new 0 0 595.28 841.89" xml:space="preserve">
<g>
	<defs>
		<rect id="SVGID_1_" width="595.28" height="841.89"/>
	</defs>
	<clipPath id="SVGID_2_">
		<use xlink:href="#SVGID_1_"  overflow="visible"/>
	</clipPath>
	<path clip-path="url(#SVGID_2_)" fill="#CEDCD3" d="M539.121,274.328c-35.689-66.906-130.9-130.675-212.272-138.841
		c-103.316-10.368-206.301,20.464-230.725,123.367c-20.512,86.422-6.861,106.031-6.861,106.031l12.05,5.185
		c0,0,59.896,141.682,90.975,165.058c68.827,51.778,199.211,115.676,288.448,38.28C598.259,471.48,585.392,361.066,539.121,274.328"
		/>
	<path clip-path="url(#SVGID_2_)" fill="#D2232A" d="M331.899,289.683c0,0,69.981-13.92,91.163-30.828
		c25.151-20.077,54.492-57.893,54.492-57.893l47.152,21.737c0,0-9.404,75.687-52.242,126.969
		c-35.778,42.832-94.459,64.837-94.459,64.837L331.899,289.683z"/>
	<path clip-path="url(#SVGID_2_)" fill="#D2232A" d="M100.99,482.94c0,0,3.138,75.746,19.237,153.633
		c12.014,58.129,45.439,115.536,45.439,115.536h63.039c0,0-6.376-109.878,21.846-109.878c28.221,0,22.488,109.878,22.488,109.878
		h63.036c0,0,33.426-57.407,45.44-115.536c16.099-77.887,19.237-153.633,19.237-153.633H100.99z"/>
	<path clip-path="url(#SVGID_2_)" d="M169.785,792.969c0,0-18.631-41.404-13.001-45.787c5.628-4.385,68.809-10.326,77.496,0
		c8.685,10.323-6.23,50.474-6.23,50.474s15.583,22.511,3.617,31.69c-11.967,9.179-79.232,7.739-101.085,7.644
		c-18.356-0.084-43.646-4.914-45.94-8.354c-2.292-3.444-5.732-41.306,25.242-50.478
		C140.858,768.981,169.785,792.969,169.785,792.969"/>
	<path clip-path="url(#SVGID_2_)" d="M331.956,792.969c0,0,18.634-41.404,13.005-45.787c-5.631-4.385-68.815-10.326-77.497,0
		c-8.685,10.323,6.227,50.474,6.227,50.474s-15.582,22.511-3.618,31.69c11.969,9.179,79.234,7.739,101.089,7.644
		c18.354-0.084,43.643-4.914,45.939-8.354c2.29-3.444,5.731-41.306-25.244-50.478C360.884,768.981,331.956,792.969,331.956,792.969"
		/>
	<path clip-path="url(#SVGID_2_)" fill="#D2232A" d="M144.681,297.919c0,0-70.085,17.487-105.208,69.085
		c-44.568,65.47-0.253,127.686,58.284,94.45C156.294,428.227,144.681,297.919,144.681,297.919"/>
	<path clip-path="url(#SVGID_2_)" fill="#D2232A" d="M415.642,489.964c0,0-12.88-98.334-41.558-156.507
		c-29.555-59.964-53.629-77.428-53.629-77.428l-69.583,14.049l-69.581-14.049c0,0-24.077,17.464-53.634,77.428
		C98.985,391.63,86.104,489.964,86.104,489.964l-27.921,57.611c0,0,33.312,16.804,90.257,36.026
		c43.851,14.802,162.928,17.163,204.866,0c55.625-22.759,90.256-36.026,90.256-36.026L415.642,489.964z"/>
	<path clip-path="url(#SVGID_2_)" fill="#FFFFFF" d="M440.754,526.742c-8.084-8.862-47.661,25.623-96.68,39.153
		c-55.185,15.231-125.455,16.406-186.405,0c-49.103-13.215-88.594-48.016-96.679-39.153c-8.084,8.864-21.297,25.101-16.822,33.024
		c6.002,10.622,60.487,43.667,110.189,52.653c58.621,10.599,96.515,9.009,96.515,9.009s37.896,1.59,96.516-9.009
		c49.7-8.986,104.184-42.031,110.187-52.653C462.052,551.842,448.839,535.606,440.754,526.742"/>
	<path clip-path="url(#SVGID_2_)" fill="#FFFFFF" d="M271.574,453.803c0,11.432-9.267,20.705-20.698,20.705
		c-11.432,0-20.703-9.273-20.703-20.705s9.271-20.699,20.703-20.699C262.307,433.104,271.574,442.372,271.574,453.803"/>
	<path clip-path="url(#SVGID_2_)" fill="#FFFFFF" d="M271.574,502.803c0,11.432-9.267,20.698-20.698,20.698
		c-11.432,0-20.703-9.267-20.703-20.698c0-11.435,9.271-20.704,20.703-20.704C262.307,482.099,271.574,491.369,271.574,502.803"/>
	<path clip-path="url(#SVGID_2_)" d="M425.349,489.964c-3.691-7.595-10.798-7.595-10.798-7.595s-36.285,22.294-76.244,33.632
		c-46.838,13.286-73.214,17.455-87.435,17.455c-14.219,0-40.597-4.169-87.434-17.455c-39.958-11.338-76.243-33.632-76.243-33.632
		s-7.108,0-10.799,7.595c-4.052,8.337,0,20.021,0,20.021s44.855,23.18,89.518,35.21c56.991,15.354,71.693,15.354,84.958,15.354
		c13.265,0,27.968,0,84.956-15.354c44.665-12.03,89.521-35.21,89.521-35.21S429.401,498.301,425.349,489.964"/>
	<path clip-path="url(#SVGID_2_)" fill="#FFF200" d="M228.445,555.9c0.588,4.419,2.624,6.821,6.241,6.684
		c2.984-0.109,10.187-0.555,14.867-0.885c4.678,0.33,11.879,0.775,14.863,0.885c3.62,0.138,5.657-2.265,6.244-6.684
		c0.59-4.418,3.832-20.947,0-23.881c-3.218-2.467-16.841-3.097-21.107-2.962c-4.269-0.135-17.888,0.495-21.108,2.962
		C224.612,534.953,227.855,551.482,228.445,555.9 M234.257,536.092c3.218-1.955,11.968-2.246,15.296-2.285
		c3.327,0.039,12.075,0.33,15.296,2.285c3.263,1.985,2.748,17.131-0.577,19.744c-2.262,1.774-11.053,1.646-14.719,1.512
		c-3.669,0.135-12.458,0.263-14.722-1.512C231.507,553.223,230.991,538.078,234.257,536.092"/>
	<path clip-path="url(#SVGID_2_)" d="M478.312,198.279c0,0-18.808-58.053-9.486-59.257c9.322-1.2,21.83,18.557,21.83,18.557
		s7.351-38.517,18.602-38.295c11.251,0.226,1.43,31.134,1.43,31.134s14.986-40.811,27.132-36.911
		c10.846,3.48-7.73,42.541-7.73,42.541s18.898-28.218,27.008-23.537c8.107,4.682-12.084,37.91-12.084,37.91
		s20.692-19.798,27.563-12.408c6.869,7.369-13.364,25.297-18.199,34.088c-9.979,18.151-38.226,35.041-38.226,35.041L478.312,198.279
		z"/>
	<path clip-path="url(#SVGID_2_)" fill="#FFFFFF" d="M472.466,189.95c-4.371,4.679-9.581,13.165-11.679,17.217
		c-2.098,4.052-12.287,15.021-10.478,19.364c1.812,4.342,27.408,8.147,38.329,16.85c10.919,8.705,32.926,22.242,36.067,15.473
		c3.145-6.768,14.85-28.815,12.895-37.735c-1.955-8.918-30.651-12.313-38.535-17.395
		C491.176,198.646,477.976,184.053,472.466,189.95"/>
	<path clip-path="url(#SVGID_2_)" fill="#FFFFFF" d="M443.561,142.179c0,15.835-12.838,28.674-28.673,28.674
		c-15.836,0-28.676-12.839-28.676-28.674c0-15.834,12.84-28.672,28.676-28.672C430.723,113.507,443.561,126.345,443.561,142.179"/>
	<path clip-path="url(#SVGID_2_)" fill="#FFFFFF" d="M147.757,219.906c0,0-35.32,0-34.923,40.247
		c0.256,25.793,34.818,29.529,34.818,29.529l39.748-54.691L147.757,219.906z"/>
	<path clip-path="url(#SVGID_2_)" fill="#FFFFFF" d="M353.989,219.906c0,0,35.318,0,34.923,40.247
		c-0.254,25.793-34.82,29.529-34.82,29.529l-39.745-54.691L353.989,219.906z"/>
	<path clip-path="url(#SVGID_2_)" fill="#D2232A" d="M148.527,159.919c-0.73-9.208,3.659-93.974,82.897-145.025
		c51.449-33.145,129.088,22.202,143.361,63.074c21.448,61.408,39.408,54.321,42.182,60.631c2.927,6.654-16.921,17.934-42.768,0.919
		c-18.667-12.292-28.524-26.956-28.524-26.956s17.321,38.321,14.335,53.504c-2.983,15.184-118.208-18.604-143.286-14.626
		C191.644,155.419,148.527,159.919,148.527,159.919"/>
	<path clip-path="url(#SVGID_2_)" fill="#FDD2B9" d="M346.493,203.725c0,37.686-42.813,68.235-95.625,68.235
		c-52.808,0-95.621-30.549-95.621-68.235c0-37.685,42.813-68.237,95.621-68.237C303.68,135.488,346.493,166.04,346.493,203.725"/>
	<path clip-path="url(#SVGID_2_)" fill="#FFFFFF" d="M156.094,197.773c7.111-2.621,59.59-19.318,83.41-20.023
		c23.819-0.706,46.697-0.834,59.135,2.774c16.666,4.834,43.174,14.139,47.853,17.378c4.685,3.242,4.358-6.587,5.674-10.523
		c3.223-9.629,15.126-15.198,14.482-20.29c-0.646-5.089-22.208-18.931-49.89-28.587c-27.683-9.655-85.334-11.783-124.471,0
		c-21.651,6.516-45.274,17.664-47.204,22.815c-1.931,5.151,3.65,15.135,4.937,20.901
		C151.305,187.991,147.523,200.932,156.094,197.773"/>
	<path clip-path="url(#SVGID_2_)" fill="#66200F" d="M293.563,205.027c-0.512,3.424-3.667,5.726-7.046,5.21
		c-3.416-0.472-5.757-3.648-5.228-7.043c0.503-3.377,3.647-5.7,7.044-5.232C291.707,198.478,294.059,201.651,293.563,205.027"/>
	<path clip-path="url(#SVGID_2_)" fill="#FFFFFF" d="M275.069,184.082c0-7.643,6.117-11.068,16.234-9.844
		c18.765,2.275,19.131,13.416,14.324,18.129c-2.951,2.878-6.857-3.667-17.173-4.25C284.444,187.884,275.069,190.839,275.069,184.082
		"/>
	<path clip-path="url(#SVGID_2_)" fill="#DCDDDE" d="M291.303,174.238c-6.466-0.783-11.265,0.354-13.914,3.252
		c3.869-1.563,9.236-2.967,14.553-1.816c12.92,2.8,14.101,6.598,16.209,11.379C308.664,181.967,304.658,175.855,291.303,174.238"/>
	<path clip-path="url(#SVGID_2_)" fill="#66200F" d="M208.182,205.027c0.51,3.424,3.667,5.726,7.048,5.21
		c3.41-0.472,5.749-3.648,5.221-7.043c-0.498-3.377-3.641-5.7-7.035-5.232C210.038,198.478,207.677,201.651,208.182,205.027"/>
	<path clip-path="url(#SVGID_2_)" fill="#FFFFFF" d="M226.677,184.082c0-7.643-6.12-11.068-16.236-9.844
		c-18.765,2.275-19.132,13.416-14.329,18.129c2.958,2.878,6.858-3.667,17.179-4.25C217.294,187.884,226.677,190.839,226.677,184.082
		"/>
	<path clip-path="url(#SVGID_2_)" fill="#DCDDDE" d="M210.441,174.238c6.46-0.783,11.268,0.354,13.914,3.252
		c-3.875-1.563-9.242-2.967-14.552-1.816c-12.918,2.8-14.111,6.598-16.215,11.379C193.073,181.967,197.081,175.855,210.441,174.238"
		/>
	<path clip-path="url(#SVGID_2_)" fill="#F58F98" d="M207.427,221.119c0,6.897-7.204,12.494-16.091,12.494
		c-8.891,0-16.097-5.597-16.097-12.494c0-6.902,7.206-12.494,16.097-12.494C200.223,208.625,207.427,214.217,207.427,221.119"/>
	<path clip-path="url(#SVGID_2_)" fill="#F58F98" d="M326.503,221.119c0,6.897-7.205,12.494-16.093,12.494
		c-8.89,0-16.097-5.597-16.097-12.494c0-6.902,7.207-12.494,16.097-12.494C319.298,208.625,326.503,214.217,326.503,221.119"/>
	<path clip-path="url(#SVGID_2_)" fill="#FFFFFF" d="M376.147,235.13c-10.192-22.597-42.146-1.333-42.146-1.333
		s-4.375-7.27-16.598-7.27c-13.411,0-21.696,8.463-21.696,8.463s-6.611-6.171-18.771-4.825c-20.865,2.313-26.063,13.69-26.063,13.69
		s-5.198-11.377-26.064-13.69c-12.158-1.346-18.77,4.825-18.77,4.825s-8.284-8.463-21.697-8.463c-12.222,0-16.598,7.27-16.598,7.27
		s-31.954-21.264-42.146,1.333c-11.173,24.774,12.751,38.128,12.751,38.128s-20.74,24.904-10.403,51.661
		c8.842,22.886,34.329,21.325,34.329,21.325s-14.564,20.804-0.292,44.077c16.787,27.372,47.454,12.121,47.454,12.121
		s13.423,25.804,41.436,25.857c28.012-0.054,41.435-25.857,41.435-25.857s30.667,15.251,47.454-12.121
		c14.272-23.273-0.292-44.077-0.292-44.077s25.487,1.561,34.328-21.325c10.338-26.757-10.401-51.661-10.401-51.661
		S387.32,259.904,376.147,235.13"/>
	<path clip-path="url(#SVGID_2_)" fill="#FDD2B9" d="M159.421,196.83c0,0-9.419-7.284-19.71,0
		c-10.284,7.284-2.634,35.148,8.934,40.289c11.574,5.144,17.229-3.322,17.229-3.322L159.421,196.83z"/>
	<path clip-path="url(#SVGID_2_)" fill="#FDD2B9" d="M342.325,196.83c0,0,9.418-7.284,19.705,0
		c10.289,7.284,2.639,35.148-8.936,40.289c-11.566,5.144-17.227-3.322-17.227-3.322L342.325,196.83z"/>
	<path clip-path="url(#SVGID_2_)" fill="#F3716D" d="M250.873,243.855l-22.939,8.129c0,0,0,28.18,22.875,28.156
		c0.02,0,0.041-0.006,0.064-0.006c0.021,0,0.042,0.006,0.064,0.006c22.873,0.024,22.873-28.156,22.873-28.156L250.873,243.855z"/>
	<path clip-path="url(#SVGID_2_)" fill="#FFFFFF" d="M253.817,230.22c0,0-16.375-8.622-34.888,0.484
		c-14.951,7.355-26.977,30.409-36.656,29.414c-9.092-0.932-8.257,0.25-5.512,3.388c4.42,5.062,26.439,15.792,47.548,9.768
		C245.146,267.329,259.552,239.137,253.817,230.22"/>
	<path clip-path="url(#SVGID_2_)" fill="#E2E3E4" d="M214.993,236.262c7.627-6.731,20.794-7.229,20.794-7.229l4.846-2.316
		c-6.063-0.573-13.677,0.039-21.704,3.987c-14.951,7.355-26.977,30.41-36.656,29.415c-9.092-0.933-8.257,0.25-5.512,3.387
		c4.42,5.062,26.439,15.792,47.548,9.768c5.417-1.547,10.385-4.615,14.694-8.437c-4.746-2.026-14.168,11.085-38.869,7.123
		c-12.611-2.022-19.45-7.773-20.695-9.267c-1.247-1.495,4.235,0.176,8.724-1.495C194.556,258.815,207.364,242.996,214.993,236.262"
		/>
	<path clip-path="url(#SVGID_2_)" fill="#FFFFFF" d="M247.927,230.22c0,0,16.377-8.622,34.888,0.484
		c14.954,7.355,26.977,30.409,36.658,29.414c9.089-0.932,8.254,0.25,5.513,3.388c-4.422,5.062-26.441,15.792-47.551,9.768
		C256.597,267.329,242.194,239.137,247.927,230.22"/>
	<path clip-path="url(#SVGID_2_)" fill="#E2E3E4" d="M286.753,236.262c-7.63-6.731-20.794-7.229-20.794-7.229l-4.845-2.316
		c6.058-0.573,13.675,0.039,21.701,3.987c14.954,7.355,26.978,30.41,36.658,29.415c9.089-0.933,8.254,0.25,5.512,3.387
		c-4.421,5.062-26.439,15.792-47.55,9.768c-5.416-1.547-10.386-4.615-14.691-8.437c4.744-2.026,14.164,11.085,38.868,7.123
		c12.611-2.022,19.447-7.773,20.694-9.267c1.246-1.495-4.232,0.176-8.725-1.495C307.19,258.815,294.383,242.996,286.753,236.262"/>
	<path clip-path="url(#SVGID_2_)" fill="#F9B3AA" d="M266.763,226.908c-2.035-8.869-11.084-14.155-15.891-14.155
		c-4.807,0-13.857,5.286-15.889,14.155c-2.824,12.312,12.634,13.396,15.889,13.396C254.127,240.304,269.581,239.22,266.763,226.908"
		/>
	<path clip-path="url(#SVGID_2_)" fill="#FFFFFF" d="M190.262,227.301c0,0-15.859,0.134-23.243-6.182
		c-6.02-5.151-6.329-17.394-9.611-13.952c-4.092,4.29,1.164,18.49-0.384,21.282c-1.552,2.795-12.156,0.821-13.706,7.336
		c-1.55,6.514-0.275,13.232,15.5,13.125C183.344,248.746,190.262,227.301,190.262,227.301"/>
	<path clip-path="url(#SVGID_2_)" fill="#FFFFFF" d="M311.482,227.301c0,0,15.859,0.134,23.242-6.182
		c6.021-5.151,6.33-17.394,9.611-13.952c4.092,4.29-1.164,18.49,0.385,21.282c1.553,2.795,12.155,0.821,13.706,7.336
		c1.551,6.514,0.275,13.232-15.501,13.125C318.401,248.746,311.482,227.301,311.482,227.301"/>
	<path clip-path="url(#SVGID_2_)" fill="#FFFFFF" d="M71.498,325.794c0,0-16.038,7.138-25.21,15.95
		c-16.071,15.445-11.534,30.856-11.032,42.562c0.506,11.707,7.87,33.737,31.201,41.513c23.332,7.777,36.703-7.929,41.239-10.892
		c4.533-2.964,12.852-25.18,12.852-25.18L71.498,325.794z"/>
	<path clip-path="url(#SVGID_2_)" fill="#CEDCD3" d="M81.69,400.858c-17.813,7.997-26.242,40.88-35.133,52.323
		c-14.225,18.306-3.905,22.61,3.837,19.855c7.744-2.756,23.197-19.285,28.605-13.22c5.41,6.067-2.734,38.421,13.964,33.481
		c16.696-4.939,17.614-39.954,27.584-31.083c9.972,8.869,14.648,15.633,24.431,12.818c7.227-2.078-14.348-25.112-15.496-44.187
		c-1.906-31.667-22.982-52.066-22.982-52.066S99.501,392.864,81.69,400.858"/>
	<path clip-path="url(#SVGID_2_)" d="M144.998,340.653c0.304-5.039-7.728-9.71-17.587-13.528c0.728-2.728,0.594-5.68-1.014-8.463
		c-4.332-7.458-19.636-6.26-25.55-5.491c-11.014,1.427-17.422,3.393-21.203,5.252c-11.296,4.718-20.137,19.213-22.713,38.176
		c-3.992,29.456,7.444,46.782,16.992,51.925c15.322,8.261,41.951,2.57,46.691-5.403c4.733-7.973,17.303-3.986,19.3-18.661
		c1.396-10.278,4.475-7.616,6.321-21.937C147.439,353.229,144.223,353.469,144.998,340.653"/>
</g>
</svg>
